<!--

    Copyright (c) 2012-2016 Codenvy, S.A.
    All rights reserved. This program and the accompanying materials
    are made available under the terms of the Eclipse Public License v1.0
    which accompanies this distribution, and is available at
    http://www.eclipse.org/legal/epl-v10.html

    Contributors:
      Codenvy, S.A. - initial API and implementation

-->
<!--?xml version="1.0" standalone="no"?-->

<svg xmlns="http://www.w3.org/2000/svg" width="300.000000pt" height="300.000000pt" version="1.1" viewBox="0 0 300.000000 300.000000" preserveAspectRatio="xMidYMid meet">
<g transform="translate(0.000000,300.000000) scale(0.100000,-0.100000)" fill="#373737" stroke="none">
<path class="node" id="node1" d="M992 2951 c-8 -4 -49 -66 -91 -137 l-77 -129 -71 -3 c-60 -2 -74 -6
-94 -28 -23 -25 -24 -32 -29 -217 l-5 -191 -180 -88 c-361 -176 -389 -192
-403 -220 -21 -46 15 -107 64 -108 16 0 356 117 454 157 41 16 146 53 153 53
4 0 7 -450 7 -1000 l0 -1000 275 0 275 0 0 1015 c0 804 3 1016 13 1019 6 2 30
8 51 12 51 12 76 46 83 116 l6 56 231 92 c127 51 263 106 301 123 39 17 90 38
115 47 25 10 128 51 230 92 102 42 195 78 207 82 l23 7 0 -203 0 -203 -137 0
-138 0 -3 -112 -3 -113 346 0 346 0 -3 113 -3 112 -132 3 -133 3 0 234 0 234
83 43 c78 41 82 45 85 80 3 31 -1 40 -23 54 -26 17 -30 17 -113 -10 -48 -15
-103 -34 -122 -41 -19 -8 -262 -89 -540 -180 -278 -92 -521 -173 -540 -181
-19 -8 -46 -15 -60 -17 -22 -2 -24 1 -22 31 5 44 -15 99 -41 117 -14 10 -45
15 -88 15 -41 0 -70 5 -77 13 -5 6 -36 60 -67 119 -32 59 -67 117 -77 128 -20
21 -53 26 -76 11z m58 -223 c11 -23 20 -43 20 -45 0 -2 -22 -3 -50 -3 -27 0
-50 2 -50 5 0 8 50 85 55 85 2 0 14 -19 25 -42z m168 -230 c17 -17 16 -142 -2
-157 -9 -8 -46 -11 -103 -9 l-88 3 -3 74 c-2 41 -1 80 2 88 7 17 176 19 194 1z
m-195 -490 c-39 -40 -82 -86 -96 -101 -28 -31 -35 -27 -31 18 1 17 3 58 3 93
l1 62 97 0 97 0 -71 -72z m77 -313 c0 -169 -1 -175 -19 -166 -22 12 -151 154
-151 167 0 9 152 171 163 173 4 0 7 -78 7 -174z m-106 -284 l89 -90 -45 -53
c-26 -29 -67 -75 -91 -103 l-46 -50 -3 193 c-2 105 -1 192 2 192 3 0 45 -40
94 -89z m106 -478 l0 -178 -87 87 -86 86 74 82 c41 44 76 85 77 91 2 5 8 9 13
9 5 0 9 -77 9 -177z m-112 -266 l83 -83 -80 -107 c-44 -59 -84 -107 -88 -107
-3 0 -6 75 -6 168 2 196 2 212 6 212 1 0 40 -37 85 -83z m112 -397 l0 -100
-75 0 c-41 0 -75 2 -75 5 0 7 141 195 146 195 2 0 4 -45 4 -100z" style="position: relative;"></path>
<path class="node" id="node2" d="M1527 1943 c-4 -3 -7 -55 -7 -115 l0 -108 723 0 722 0 3 101 c1 65
-2 107 -9 115 -9 12 -134 14 -719 14 -388 0 -710 -3 -713 -7z" style="position: relative;"></path>
<path class="node" id="node3" d="M1522 1498 l3 -113 720 0 720 0 0 110 0 110 -723 3 -723 2 3 -112z" style="position: relative;"></path>
<path class="node" id="node4" d="M1520 1165 l0 -115 719 0 719 0 7 29 c7 31 5 154 -2 184 -4 16 -47
17 -724 17 l-719 0 0 -115z" style="position: relative;"></path>
<path class="node" id="node5" d="M1527 943 c-4 -3 -7 -55 -7 -115 l0 -108 724 0 725 0 -3 108 c-2 59
-4 110 -5 115 -1 9 -1425 10 -1434 0z" style="position: relative;"></path>
<path class="node" id="node6" d="M1522 498 l3 -113 720 0 720 0 0 110 0 110 -723 3 -723 2 3 -112z" style="position: relative;"></path>
<path class="node" id="node7" d="M1520 165 l0 -115 723 2 722 3 0 110 0 110 -722 3 -723 2 0 -115z" style="position: relative;"></path>
</g>
<g transform="translate(0.000000,300.000000) scale(0.100000,-0.100000)" fill="#FFFFFF" stroke="none">

<path class="node" id="node9" d="M995 2730 c-14 -22 -25 -42 -25 -45 0 -3 23 -5 50 -5 28 0 50 1 50 3
0 8 -41 87 -45 87 -3 0 -16 -18 -30 -40z" style="position: relative;"></path>
<path class="node" id="node10" d="M1024 2497 c-3 -8 -4 -47 -2 -88 l3 -74 88 -3 c57 -2 94 1 103 9 18
15 19 140 2 157 -18 18 -187 16 -194 -1z" style="position: relative;"></path>
<path class="node" id="node11" d="M899 2018 c0 -35 -2 -76 -3 -93 -4 -45 3 -49 31 -18 14 15 57 61 96
101 l71 72 -97 0 -97 0 -1 -62z" style="position: relative;"></path>
<path class="node" id="node12" d="M1008 1786 c-43 -45 -78 -86 -78 -90 0 -13 129 -155 151 -167 18 -9
19 -3 19 166 0 96 -3 174 -7 174 -5 -1 -43 -38 -85 -83z" style="position: relative;"></path>
<path class="node" id="node13" d="M898 1308 l3 -193 46 50 c24 28 65 74 91 103 l45 53 -89 90 c-49 49
-91 89 -94 89 -3 0 -4 -87 -2 -192z" style="position: relative;"></path>
<path class="node" id="node14" d="M1078 1101 c-1 -6 -36 -47 -77 -91 l-74 -82 86 -86 87 -87 0 178 c0
100 -4 177 -9 177 -5 0 -11 -4 -13 -9z" style="position: relative;"></path>
<path class="node" id="node15" d="M899 728 c-4 -127 -1 -358 4 -358 4 0 44 48 88 107 l80 107 -83 83
c-45 46 -84 83 -85 83 -2 0 -3 -10 -4 -22z" style="position: relative;"></path>
<path class="node" id="node16" d="M1021 275 c-39 -52 -71 -97 -71 -100 0 -3 34 -5 75 -5 l75 0 0 100
c0 55 -2 100 -4 100 -2 0 -36 -43 -75 -95z" style="position: relative;"></path>
</g>
</svg>